<?xml version="1.0" encoding="utf-8"?>
<!-- Generator: Adobe Illustrator 16.0.0, SVG Export Plug-In . SVG Version: 6.00 Build 0)  -->
<!DOCTYPE svg PUBLIC "-//W3C//DTD SVG 1.1//EN" "http://www.w3.org/Graphics/SVG/1.1/DTD/svg11.dtd">
<svg version="1.1" id="Layer_1" xmlns="http://www.w3.org/2000/svg" xmlns:xlink="http://www.w3.org/1999/xlink" x="0px" y="0px"
	 width="256px" height="256px" viewBox="0 0 256 256" enable-background="new 0 0 256 256" xml:space="preserve">
<polygon points="16.006,98.643 16.006,44.217 44.219,16 98.644,16 233.367,150.729 150.73,233.371 "/>
<path fill="#F0F0F0" d="M98.644,16l134.724,134.729l-82.638,82.645L16.006,98.643V44.217L44.219,16H98.644 M105.271,0h-67.68
	L0.006,37.59v67.682L150.73,256l105.264-105.271L105.271,0L105.271,0z"/>
<circle fill="#F0F0F0" cx="54" cy="54" r="12.5"/>
<path fill="#F0F0F0" d="M124.668,116.078l6.794,10.462l-6.56,6.558l-6.794-10.46L124.668,116.078z M150.175,125.458l6.364-6.363
	l-6.942-10.69l-6.364,6.364l-6.794-10.461l6.364-6.364l-6.942-10.689l-6.363,6.364l-12.945-19.934L104.78,85.455l12.945,19.934
	l-6.559,6.559L98.222,92.014l-11.967,11.967L99.2,123.915l-6.363,6.363l6.941,10.689l6.364-6.363l6.794,10.461l-6.365,6.363
	l6.943,10.691l6.363-6.365l12.945,19.934l11.965-11.967l-12.943-19.932l6.56-6.561l12.944,19.934l11.771-11.771L150.175,125.458"/>
</svg>
